<?xml version="1.0" encoding="utf-8"?>
<!-- Generator: Adobe Illustrator 17.0.0, SVG Export Plug-In . SVG Version: 6.00 Build 0)  -->
<!DOCTYPE svg PUBLIC "-//W3C//DTD SVG 1.1//EN" "http://www.w3.org/Graphics/SVG/1.1/DTD/svg11.dtd">
<svg version="1.1" id="Layer_1" xmlns="http://www.w3.org/2000/svg" xmlns:xlink="http://www.w3.org/1999/xlink" x="0px" y="0px"
	 width="350.305px" height="353.934px" viewBox="0 0 350.305 353.934" enable-background="new 0 0 350.305 353.934"
	 xml:space="preserve">
<polygon fill="#FF6600" points="0,0 0,53.566 0,245.634 0,318.865 0,353.934 35.069,353.934 315.236,353.934 350.305,353.934 
	350.305,318.865 350.305,245.634 350.305,245.634 350.305,0 "/>
<g>
	<g>
		<g>
			<path id="letter_o_1_" fill="#FFFFFF" d="M52.365,327.853c-12.346,0-23.484-7.862-23.484-25.041
				c0-17.179,11.138-25.039,23.484-25.039s23.467,7.86,23.467,25.039C75.832,319.991,64.711,327.853,52.365,327.853 M52.365,288.332
				c-9.334,0-11.039,8.408-11.039,14.481s1.704,14.498,11.039,14.498c9.334,0,11.038-8.425,11.038-14.498
				C63.403,296.739,61.699,288.332,52.365,288.332"/>
			<path id="letter_r_1_" fill="#FFFFFF" d="M84.397,279.026h11.882v5.577c2.267-3.012,7.845-6.555,13.074-6.555
				c0.496,0,1.109,0,1.622,0.067v11.734h-0.612c-5.428,0-11.37,0.845-13.289,5.065v31.559H84.397V279.026L84.397,279.026z"/>
			<path id="letter_a_1_" fill="#FFFFFF" d="M144.155,322.341c-4.832,3.177-10.062,4.717-15.689,4.717
				c-8.854,0-14.101-5.891-14.101-13.802c0-10.624,9.764-16.235,29.889-18.503v-2.647c0-3.444-2.615-5.462-7.447-5.462
				s-8.754,1.92-11.585,5.462l-8.423-4.8c4.419-6.189,11.154-9.285,20.207-9.285c12.379,0,19.33,5.364,19.33,14.085
				c0,0-0.017,34.306,0,34.39h-11.072L144.155,322.341L144.155,322.341z M126.662,312.345c0,3.195,2.003,6.174,5.627,6.174
				c3.922,0,7.745-1.621,11.568-4.998v-11.237C132.19,303.724,126.662,306.736,126.662,312.345"/>
			<path id="letter_n_1_" fill="#FFFFFF" d="M166.204,280.289l10.343-1.423l1.142,5.626c5.825-4.27,10.46-6.536,16.286-6.536
				c9.764,0,14.81,5.179,14.81,15.44v33.034H196.29v-30.865c0-5.811-1.505-8.425-6.024-8.425c-3.723,0-7.447,1.688-11.7,5.263
				v34.027h-12.362V280.289L166.204,280.289z"/>
			<path id="letter_g_1_" fill="#FFFFFF" d="M239.347,316.274c9.467-0.065,10.278-9.715,10.278-15.986
				c0-7.447-3.625-13.455-10.36-13.455c-4.484,0-9.5,3.276-9.5,13.969C229.765,306.643,230.18,316.357,239.347,316.274
				 M261.623,278.856v44.931c0,7.911-0.628,21.001-23.218,21.117c-9.334,0.067-17.989-3.674-19.711-11.815l12.314-1.986
				c0.512,2.333,1.952,4.65,8.937,4.65c6.471,0,9.582-3.094,9.582-10.508v-5.527l-0.166-0.166
				c-1.986,3.558-4.998,6.918-12.247,6.918c-11.071,0-19.776-7.679-19.776-23.716c0-15.872,8.986-24.759,19.064-24.774
				c9.483-0.017,12.976,4.302,13.802,6.57l-0.166-0.017l1.043-5.676h10.542V278.856z"/>
			<path id="letter_e_1_" fill="#FFFFFF" d="M291.481,327.337c-13.984,0-22.324-9.003-22.324-24.609
				c0-15.788,8.44-24.774,22.126-24.774s21.829,8.722,21.829,24.144c0,0.828-0.099,1.638-0.099,2.451H281.42
				c0.082,9.003,3.822,13.537,11.17,13.537c4.717,0,7.845-1.903,10.775-6.073l9.134,5.063
				C308.477,323.812,301.23,327.337,291.481,327.337 M300.85,296.456c0-6.338-3.642-10.078-9.566-10.078
				c-5.643,0-9.169,3.657-9.665,10.078H300.85L300.85,296.456z"/>
			<path id="letter_TM_1_" fill="#FFFFFF" d="M334.49,261.021l-4.601,11.899l-4.682-11.899h-4.005v15.689h2.597v-13.092h0.067
				l5.147,13.092h1.655l5.114-13.092h0.082v13.092h2.582v-15.689H334.49L334.49,261.021z M305.612,261.021v2.085h4.899v13.604h2.597
				v-13.604h4.916v-2.085H305.612L305.612,261.021z"/>
		</g>
	</g>
</g>
</svg>
